<svg width="120" height="121" viewBox="0 0 120 121" fill="none" xmlns="http://www.w3.org/2000/svg">
<g clip-path="url(#clip0_18_633)">
<path d="M83.6683 75.9436C83.6683 92.1478 72.7751 99.6837 59.3381 99.6837C45.9011 99.6837 35.008 92.1398 35.008 75.9436C35.008 59.7475 59.1866 29.5242 59.1866 29.5242C59.1866 29.5242 83.6683 59.7475 83.6683 75.9436Z" fill="white" stroke="#72A830" stroke-width="3" stroke-miterlimit="10"/>
<path d="M99.1308 50.7284C99.1308 61.143 91.8022 65.9995 82.7592 65.9995C73.7161 65.9995 66.3876 61.151 66.3876 50.7284C66.3876 40.3057 82.6555 20.8799 82.6555 20.8799C82.6555 20.8799 99.1308 40.3137 99.1308 50.7284Z" fill="#72A830"/>
<path d="M39.0989 67.124C39.0989 73.1048 34.8246 75.8879 29.5455 75.8879C24.2663 75.8879 20 73.1048 20 67.124C20 61.1431 29.4896 49.9868 29.4896 49.9868C29.4896 49.9868 39.0989 61.1431 39.0989 67.124Z" fill="#72A830"/>
</g>
<circle cx="60" cy="60.8799" r="58.5" stroke="#72A830" stroke-width="3"/>
<defs>
<clipPath id="clip0_18_633">
<rect width="79.1308" height="80" fill="white" transform="translate(20 20.8799)"/>
</clipPath>
</defs>
</svg>
