<svg width="120" height="121" viewBox="0 0 120 121" fill="none" xmlns="http://www.w3.org/2000/svg">
<g clip-path="url(#clip0_36_70)">
<path d="M56.8733 34.1555H50.7525C48.4204 34.1555 46.5217 36.7217 46.5217 39.8948V66.5715H64.2685V83.6161C64.2685 87.8209 61.7543 91.2281 58.6593 91.2281H33.6472" stroke="#72A830" stroke-width="5" stroke-miterlimit="10"/>
<path d="M86.7057 25.668C85.3879 20.8997 73.9612 17.1804 60.0637 17.1804C35.9187 17.1804 33.3004 25.668 33.3004 25.668L33.3178 95.5891C33.9506 100.591 45.6807 104.571 60.0637 104.571C82.2581 104.571 86.8964 95.5891 86.8964 95.5891L86.7143 25.668H86.7057Z" stroke="#72A830" stroke-width="3" stroke-miterlimit="10"/>
<path d="M83.2205 25.8501H59.0321C57.294 25.8501 55.885 27.2591 55.885 28.9972V40.918C55.885 42.6561 57.294 44.0651 59.0321 44.0651H83.2205C84.9586 44.0651 86.3676 42.6561 86.3676 40.918V28.9972C86.3676 27.2591 84.9586 25.8501 83.2205 25.8501Z" fill="white" stroke="#72A830" stroke-width="1.62" stroke-miterlimit="10"/>
<path d="M61.2254 31.1384C60.818 31.4158 60.2891 31.6239 59.7083 31.6586V30.5488C60.896 30.4968 61.3035 29.7859 61.5809 28.9363H62.4219V41.0825H61.2168V31.1384H61.2254Z" fill="#72A830"/>
<path d="M64.1818 31.8667C64.1818 30.0114 65.0141 28.8149 66.6786 28.8149C68.3432 28.8149 69.1928 30.0114 69.1928 31.8667V38.1349C69.1928 39.9902 68.3606 41.2039 66.6786 41.2039C64.9967 41.2039 64.1818 39.9902 64.1818 38.1349V31.8667ZM65.3868 38.2216C65.3868 39.3139 65.8117 39.9728 66.6873 39.9728C67.5629 39.9728 67.9878 39.3139 67.9878 38.2216V31.7973C67.9878 30.6876 67.5803 30.0287 66.6873 30.0287C65.7943 30.0287 65.3868 30.6876 65.3868 31.7973V38.2216Z" fill="#72A830"/>
<path d="M70.2593 31.8667C70.2593 30.0114 71.0916 28.8149 72.7561 28.8149C74.4207 28.8149 75.2704 30.0114 75.2704 31.8667V38.1349C75.2704 39.9902 74.4381 41.2039 72.7561 41.2039C71.0742 41.2039 70.2593 39.9902 70.2593 38.1349V31.8667ZM71.4644 38.2216C71.4644 39.3139 71.8892 39.9728 72.7648 39.9728C73.6405 39.9728 74.0653 39.3139 74.0653 38.2216V31.7973C74.0653 30.6876 73.6578 30.0287 72.7648 30.0287C71.8718 30.0287 71.4644 30.6876 71.4644 31.7973V38.2216Z" fill="#72A830"/>
<path d="M78.7209 30.4969C78.7209 30.9218 78.3915 31.2512 77.9667 31.2512C77.5419 31.2512 77.2037 30.9218 77.2037 30.4969C77.2037 30.0721 77.5419 29.7427 77.9667 29.7427C78.3915 29.7427 78.7209 30.0721 78.7209 30.4969ZM77.5852 30.4969C77.5852 30.7137 77.7499 30.8697 77.9667 30.8697C78.1834 30.8697 78.3395 30.7137 78.3395 30.4969C78.3395 30.2802 78.1747 30.1241 77.9667 30.1241C77.7499 30.1241 77.5852 30.2802 77.5852 30.4969Z" fill="#72A830"/>
<path d="M82.761 33.41V34.0602H81.9981V33.3666C81.9981 32.7164 81.738 32.3263 81.1571 32.3263C80.5763 32.3263 80.3162 32.7164 80.3162 33.3666V37.1726C80.3162 37.8229 80.5849 38.213 81.1571 38.213C81.7293 38.213 81.9981 37.8229 81.9981 37.1726V36.2363H82.761V37.1293C82.761 38.2217 82.2495 38.9412 81.1311 38.9412C80.0127 38.9412 79.5186 38.2217 79.5186 37.1293V33.4013C79.5186 32.3089 80.0301 31.5894 81.1311 31.5894C82.2322 31.5894 82.761 32.3089 82.761 33.4013V33.41Z" fill="#72A830"/>
<path d="M73.5451 47.7063H46.4697C43.6734 47.7063 41.4066 49.9731 41.4066 52.7694V81.3187C41.4066 84.1149 43.6734 86.3818 46.4697 86.3818H73.5451C76.3414 86.3818 78.6082 84.1149 78.6082 81.3187V52.7694C78.6082 49.9731 76.3414 47.7063 73.5451 47.7063Z" fill="white" stroke="#72A830" stroke-width="2.03" stroke-miterlimit="10"/>
<path d="M49.5561 58.5954C51.2463 58.5954 52.6165 57.2252 52.6165 55.535C52.6165 53.8448 51.2463 52.4746 49.5561 52.4746C47.8659 52.4746 46.4957 53.8448 46.4957 55.535C46.4957 57.2252 47.8659 58.5954 49.5561 58.5954Z" fill="white" stroke="#72A830" stroke-width="2" stroke-miterlimit="10"/>
<path d="M59.691 65.0978C61.7738 65.0978 63.4623 63.4093 63.4623 61.3265C63.4623 59.2436 61.7738 57.5552 59.691 57.5552C57.6082 57.5552 55.9197 59.2436 55.9197 61.3265C55.9197 63.4093 57.6082 65.0978 59.691 65.0978Z" fill="white" stroke="#72A830" stroke-width="2" stroke-miterlimit="10"/>
<path d="M70.9529 60.7108C73.007 60.7108 74.6722 59.0456 74.6722 56.9915C74.6722 54.9374 73.007 53.2722 70.9529 53.2722C68.8988 53.2722 67.2336 54.9374 67.2336 56.9915C67.2336 59.0456 68.8988 60.7108 70.9529 60.7108Z" fill="white" stroke="#72A830" stroke-width="2" stroke-miterlimit="10"/>
<path d="M51.3681 70.0568C52.5603 70.0568 53.5269 69.0903 53.5269 67.898C53.5269 66.7058 52.5603 65.7393 51.3681 65.7393C50.1759 65.7393 49.2094 66.7058 49.2094 67.898C49.2094 69.0903 50.1759 70.0568 51.3681 70.0568Z" fill="white" stroke="#72A830" stroke-miterlimit="10"/>
<path d="M67.9705 71.8773C69.1628 71.8773 70.1293 70.9108 70.1293 69.7186C70.1293 68.5263 69.1628 67.5598 67.9705 67.5598C66.7783 67.5598 65.8118 68.5263 65.8118 69.7186C65.8118 70.9108 66.7783 71.8773 67.9705 71.8773Z" fill="white" stroke="#72A830" stroke-miterlimit="10"/>
<path d="M60.7227 76.8971C61.915 76.8971 62.8815 75.9306 62.8815 74.7383C62.8815 73.5461 61.915 72.5796 60.7227 72.5796C59.5305 72.5796 58.564 73.5461 58.564 74.7383C58.564 75.9306 59.5305 76.8971 60.7227 76.8971Z" fill="white" stroke="#72A830" stroke-miterlimit="10"/>
<path d="M49.0359 78.8739C50.2282 78.8739 51.1947 77.9074 51.1947 76.7151C51.1947 75.5229 50.2282 74.5564 49.0359 74.5564C47.8437 74.5564 46.8772 75.5229 46.8772 76.7151C46.8772 77.9074 47.8437 78.8739 49.0359 78.8739Z" fill="white" stroke="#72A830" stroke-miterlimit="10"/>
<path d="M68.5861 81.0934C69.3331 81.0934 69.9386 80.4879 69.9386 79.7409C69.9386 78.994 69.3331 78.3884 68.5861 78.3884C67.8392 78.3884 67.2336 78.994 67.2336 79.7409C67.2336 80.4879 67.8392 81.0934 68.5861 81.0934Z" fill="white" stroke="#72A830" stroke-width="0.63" stroke-miterlimit="10"/>
<path d="M56.4312 82.1857C57.1782 82.1857 57.7837 81.5801 57.7837 80.8332C57.7837 80.0862 57.1782 79.4807 56.4312 79.4807C55.6843 79.4807 55.0787 80.0862 55.0787 80.8332C55.0787 81.5801 55.6843 82.1857 56.4312 82.1857Z" fill="white" stroke="#72A830" stroke-width="0.63" stroke-miterlimit="10"/>
</g>
<circle cx="60" cy="60.8799" r="58.5" stroke="#72A830" stroke-width="3"/>
<defs>
<clipPath id="clip0_36_70">
<rect width="56.1882" height="90" fill="white" transform="translate(32 15.8799)"/>
</clipPath>
</defs>
</svg>
