<svg width="120" height="121" viewBox="0 0 120 121" fill="none" xmlns="http://www.w3.org/2000/svg">
<g clip-path="url(#clip0_18_625)">
<path d="M78.276 65.1504V22.0662H41.7556V65.1504H23.0367L60.0158 99.2666L96.9948 65.1504H78.276Z" fill="white" stroke="#72A830" stroke-width="3" stroke-miterlimit="10"/>
<path d="M48.4697 73.6912L51.9889 68.7327C54.7726 70.6702 57.2083 71.6667 59.8022 71.6667C62.9102 71.6667 64.2783 70.4962 64.2783 68.2266C64.2783 63.102 49.8062 63.189 49.8062 54.1973C49.8062 48.4164 54.2111 44.739 61.1546 44.739C65.8442 44.739 69.0312 46.4947 71.5856 48.962L67.5523 53.1613C65.5595 51.5164 63.8671 50.6465 61.5816 50.6465C58.9481 50.6465 57.5168 51.6113 57.5168 53.8493C57.5168 58.6022 71.981 58.1831 71.981 67.7125C71.981 73.4381 67.8133 77.5741 59.7943 77.5741C56.3305 77.5741 51.5618 76.2376 48.4618 73.6912H48.4697ZM58.1099 39.8596H63.4559V47.0324H58.1099V39.8596ZM58.1099 74.5927H63.4559V82.4693H58.1099V74.5927Z" fill="#72A830"/>
</g>
<circle cx="60" cy="60.8799" r="58.5" stroke="#72A830" stroke-width="3"/>
<defs>
<clipPath id="clip0_18_625">
<rect width="80.0316" height="80" fill="white" transform="translate(20 20.8799)"/>
</clipPath>
</defs>
</svg>
