<svg width="120" height="120" viewBox="0 0 120 120" fill="none" xmlns="http://www.w3.org/2000/svg">
<circle cx="60" cy="60" r="58.5" stroke="#72A830" stroke-width="3"/>
<g clip-path="url(#clip0_36_153)">
<path d="M93.1724 26.1467H25.9627C23.3024 26.1467 21.1467 28.3025 21.1467 30.9627V72.3573C21.1467 75.0175 23.3024 77.1733 25.9627 77.1733H45.3871V88.3035H37.8039V93.8534H81.3312V88.3035H73.748V77.1733H93.1724C95.8327 77.1733 97.9884 75.0175 97.9884 72.3573V30.9627C97.9884 28.3025 95.8327 26.1467 93.1724 26.1467Z" stroke="#72A830" stroke-width="3" stroke-miterlimit="10"/>
<path d="M27.3081 28.0273H91.4218C93.7916 28.0273 95.7104 29.9461 95.7104 32.3159V70.8132H23.0195V32.3159C23.0195 29.9461 24.9383 28.0273 27.3081 28.0273Z" fill="white"/>
<path d="M25.5345 27.9966H93.1954C94.5866 27.9966 95.7104 29.128 95.7104 30.5116V34.2344H23.0195V30.5116C23.0195 29.1203 24.1509 27.9966 25.5345 27.9966Z" fill="#72A830"/>
<path d="M26.6965 32.3082C27.3551 32.3082 27.889 31.7742 27.889 31.1156C27.889 30.457 27.3551 29.9231 26.6965 29.9231C26.0379 29.9231 25.504 30.457 25.504 31.1156C25.504 31.7742 26.0379 32.3082 26.6965 32.3082Z" fill="white"/>
<path d="M29.9989 32.3082C30.6575 32.3082 31.1914 31.7742 31.1914 31.1156C31.1914 30.457 30.6575 29.9231 29.9989 29.9231C29.3402 29.9231 28.8063 30.457 28.8063 31.1156C28.8063 31.7742 29.3402 32.3082 29.9989 32.3082Z" fill="white"/>
<path d="M33.2937 32.3082C33.9523 32.3082 34.4862 31.7742 34.4862 31.1156C34.4862 30.457 33.9523 29.9231 33.2937 29.9231C32.635 29.9231 32.1011 30.457 32.1011 31.1156C32.1011 31.7742 32.635 32.3082 33.2937 32.3082Z" fill="white"/>
<path d="M37.4828 36.8259H26.6659C25.868 36.8259 25.2211 37.4728 25.2211 38.2707V47.8415C25.2211 48.6395 25.868 49.2863 26.6659 49.2863H37.4828C38.2807 49.2863 38.9276 48.6395 38.9276 47.8415V38.2707C38.9276 37.4728 38.2807 36.8259 37.4828 36.8259Z" stroke="#72A830" stroke-miterlimit="10"/>
<path d="M52.7563 36.8259H41.9395C41.1415 36.8259 40.4947 37.4728 40.4947 38.2707V47.8415C40.4947 48.6395 41.1415 49.2863 41.9395 49.2863H52.7563C53.5543 49.2863 54.2011 48.6395 54.2011 47.8415V38.2707C54.2011 37.4728 53.5543 36.8259 52.7563 36.8259Z" stroke="#72A830" stroke-miterlimit="10"/>
<path d="M68.0299 36.8259H57.213C56.4151 36.8259 55.7682 37.4728 55.7682 38.2707V47.8415C55.7682 48.6395 56.4151 49.2863 57.213 49.2863H68.0299C68.8278 49.2863 69.4747 48.6395 69.4747 47.8415V38.2707C69.4747 37.4728 68.8278 36.8259 68.0299 36.8259Z" stroke="#72A830" stroke-miterlimit="10"/>
<path d="M92.8055 36.8259H72.9453C71.894 36.8259 71.0418 37.6781 71.0418 38.7294V47.3829C71.0418 48.4341 71.894 49.2863 72.9453 49.2863H92.8055C93.8567 49.2863 94.709 48.4341 94.709 47.3829V38.7294C94.709 37.6781 93.8567 36.8259 92.8055 36.8259Z" stroke="#72A830" stroke-miterlimit="10"/>
<path d="M36.4661 42.3147H27.438V44.5774H36.4661V42.3147Z" fill="#72A830"/>
<path d="M36.4661 45.1965H27.438V47.4593H36.4661V45.1965Z" fill="#72A830"/>
<path d="M51.6174 39.4326H42.5893V41.6954H51.6174V39.4326Z" fill="#72A830"/>
<path d="M51.6174 42.3145H42.5893V44.5772H51.6174V42.3145Z" fill="#72A830"/>
<path d="M51.6174 45.1965H42.5893V47.4593H51.6174V45.1965Z" fill="#72A830"/>
<path d="M89.763 39.4326H72.7007V41.6954H89.763V39.4326Z" fill="#72A830"/>
<path d="M83.1735 42.3145H72.7007V44.5772H83.1735V42.3145Z" fill="#72A830"/>
<path d="M78.4187 45.1965H72.7007V47.4593H78.4187V45.1965Z" fill="#72A830"/>
<path d="M47.9556 54.6985H25.848V56.4414H47.9556V54.6985Z" fill="#72A830"/>
<path d="M47.9556 57.5728H25.848V59.3157H47.9556V57.5728Z" fill="#72A830"/>
<path d="M47.9556 60.4395H25.848V62.1824H47.9556V60.4395Z" fill="#72A830"/>
<path d="M47.9556 63.3062H25.848V65.0491H47.9556V63.3062Z" fill="#72A830"/>
<path d="M47.9556 66.1729H25.848V67.9158H47.9556V66.1729Z" fill="#72A830"/>
<path d="M47.9556 69.0471H25.848V70.7901H47.9556V69.0471Z" fill="#72A830"/>
<path d="M68.3128 54.6985H51.1893V56.4414H68.3128V54.6985Z" fill="#72A830"/>
<path d="M68.3128 57.5728H51.1893V59.3157H68.3128V57.5728Z" fill="#72A830"/>
<path d="M68.3128 60.4395H51.1893V62.1824H68.3128V60.4395Z" fill="#72A830"/>
<path d="M68.3128 63.3062H51.1893V65.0491H68.3128V63.3062Z" fill="#72A830"/>
<path d="M68.3128 66.1729H51.1893V67.9158H68.3128V66.1729Z" fill="#72A830"/>
<path d="M68.3128 69.0471H51.1893V70.7901H68.3128V69.0471Z" fill="#72A830"/>
<path d="M93.4323 54.6985H70.629V56.4414H93.4323V54.6985Z" fill="#72A830"/>
<path d="M93.4323 57.5728H70.629V59.3157H93.4323V57.5728Z" fill="#72A830"/>
<path d="M93.4323 60.4395H70.629V62.1824H93.4323V60.4395Z" fill="#72A830"/>
<path d="M93.4323 63.3062H70.629V65.0491H93.4323V63.3062Z" fill="#72A830"/>
<path d="M93.4323 66.1729H70.629V67.9158H93.4323V66.1729Z" fill="#72A830"/>
<path d="M93.4323 69.0471H70.629V70.7901H93.4323V69.0471Z" fill="#72A830"/>
<path d="M66.7686 45.1965H57.7405V47.4593H66.7686V45.1965Z" fill="#72A830"/>
</g>
<defs>
<clipPath id="clip0_36_153">
<rect width="79.1351" height="70" fill="white" transform="translate(20 25)"/>
</clipPath>
</defs>
</svg>
