<svg width="135" height="113" viewBox="0 0 135 113" fill="none" xmlns="http://www.w3.org/2000/svg">
<g clip-path="url(#clip0_18_728)">
<path d="M39.2351 57.9197V48.4197H14.4351V57.9197H20.1251V78.2397H14.4351V87.7397H39.2351V78.2397H33.5451V57.9197H39.2351Z" fill="#00539F"/>
<path d="M66.5951 63.5098C65.0651 63.0598 57.1751 60.8098 55.8151 60.3598C54.4551 59.9098 53.3351 59.2698 53.3351 58.4698C53.3351 57.6698 54.5851 56.7998 57.1251 56.7998C65.1251 56.7998 68.9651 61.7298 68.9651 61.7298C68.9651 61.7298 69.3951 62.3098 69.5451 62.5098H77.2651V49.0498H68.9851V51.4998C68.3551 51.0598 63.6851 48.0198 56.4351 48.0198C46.8751 48.0198 41.5551 52.9798 41.5551 60.3898C41.5551 67.7998 48.2751 70.8698 50.1351 71.6498C51.9951 72.4298 59.3051 74.4898 62.4251 75.4698C65.5451 76.4498 66.6851 77.1398 66.6851 77.6398C66.6851 78.1398 65.3151 79.4498 61.4151 79.4498C54.6251 79.4498 51.1251 75.4398 50.5051 74.6698C50.3051 74.3998 50.0851 74.0898 50.0051 73.9798C49.9151 73.8498 49.7051 73.5498 49.5651 73.3398H41.8451V87.7098H50.5051V84.7098C51.5151 85.3798 56.6751 88.5998 62.8651 88.5998C69.7751 88.5998 78.5851 85.5898 78.5851 76.1998C78.5851 66.8098 68.1351 63.9698 66.6051 63.5198L66.5951 63.5098Z" fill="#00539F"/>
<path d="M100.565 47.8799C89.0451 47.8799 79.5951 53.6399 79.5951 68.3399C79.5951 83.0399 89.8551 88.5499 100.615 88.5499C111.375 88.5499 121.535 83.0899 121.535 68.4899C121.535 53.8899 111.385 47.8799 100.565 47.8799ZM100.665 78.7499C96.7251 78.7499 94.1951 77.8399 94.1951 68.2899C94.1951 58.7399 96.0651 57.7299 100.815 57.7299C103.695 57.7299 107.185 57.9299 107.185 67.9899C107.185 78.0499 104.605 78.7499 100.665 78.7499Z" fill="#00539F"/>
<path d="M30.9651 44.0798C33.5551 40.2598 36.7351 36.8698 40.3851 34.0498C41.8651 35.1398 43.4351 36.1298 45.0751 37.0098C42.3151 40.0898 39.8351 43.4998 39.4251 44.0698H41.0851C42.0851 42.7298 44.1351 40.0298 46.3151 37.6398C48.6851 38.8098 51.2051 39.7598 53.8451 40.4898C53.1451 41.9798 52.6151 43.2798 52.3051 44.0798H53.7451C54.0751 43.2598 54.5651 42.1098 55.1651 40.8398C58.5251 41.6598 62.0351 42.1198 65.6351 42.1898V44.0798H66.9751V42.1898C70.5451 42.1598 74.0451 41.7598 77.3851 40.9898C77.9551 42.1998 78.4151 43.2898 78.7351 44.0698H80.1751C79.8751 43.2998 79.3751 42.0698 78.7151 40.6598C81.3951 39.9598 83.9651 39.0298 86.3851 37.8898C88.4751 40.2198 90.4251 42.7798 91.3851 44.0698H93.0451C92.6451 43.5198 90.2951 40.2798 87.6351 37.2698C89.4651 36.3198 91.2051 35.2398 92.8351 34.0398C96.4851 36.8498 99.6751 40.2398 102.255 44.0698H103.865C95.9551 31.8598 82.2151 23.7698 66.6151 23.7698C51.0151 23.7698 37.2751 31.8698 29.3651 44.0698H30.9751L30.9651 44.0798ZM54.4451 39.2698C51.9451 38.5898 49.5451 37.7098 47.2751 36.6198C47.5851 36.2998 47.8951 35.9898 48.1951 35.6998C51.2951 32.7098 56.3951 29.4298 57.5151 28.7198C58.4251 29.2198 59.4151 29.6398 60.4651 29.9698C59.6451 31.0398 58.0451 33.2198 56.2951 35.9798C55.6151 37.0498 54.9951 38.1798 54.4451 39.2598V39.2698ZM65.6451 40.8498C62.2551 40.7798 58.9451 40.3598 55.7751 39.6098C56.2751 38.6398 56.8251 37.6498 57.4151 36.6998C59.4251 33.5198 61.2451 31.1298 61.8551 30.3598C63.0651 30.6398 64.3351 30.8198 65.6351 30.8798V40.8498H65.6451ZM66.9851 40.8498V30.8898C68.2751 30.8698 69.5351 30.7298 70.7451 30.4898C71.4351 31.3798 73.1651 33.6898 75.0751 36.6998C75.7051 37.6898 76.2851 38.7398 76.7951 39.7598C73.6451 40.4598 70.3451 40.8298 66.9851 40.8598V40.8498ZM78.1351 39.4398C77.5651 38.3098 76.9151 37.1198 76.2051 35.9798C74.5451 33.3598 73.0151 31.2698 72.1651 30.1398C73.2851 29.8298 74.3451 29.4198 75.3151 28.9198C76.8851 29.9298 81.4451 32.9298 84.3051 35.6898C84.6851 36.0598 85.0651 36.4498 85.4551 36.8498C83.1451 37.9198 80.6951 38.7798 78.1451 39.4298L78.1351 39.4398ZM91.7151 33.2098C90.1451 34.3398 88.4651 35.3598 86.7051 36.2498C86.2151 35.7198 85.7151 35.2098 85.2251 34.7298C82.5451 32.1498 78.5651 29.4398 76.6151 28.1698C77.2751 27.7398 77.8851 27.2598 78.4251 26.7498C83.2551 28.1298 87.7451 30.3398 91.7151 33.2098ZM66.6151 25.1098C70.1451 25.1098 73.5751 25.5398 76.8651 26.3498C74.3751 28.3798 70.6351 29.5598 66.6151 29.5598C62.5951 29.5598 58.8551 28.3798 56.3551 26.3498C59.6451 25.5398 63.0751 25.1098 66.6151 25.1098ZM54.8051 26.7598C55.2451 27.1798 55.7251 27.5798 56.2451 27.9398C54.4751 29.0798 50.1251 31.9798 47.2651 34.7398C46.8551 35.1398 46.4351 35.5598 46.0251 35.9998C44.4451 35.1698 42.9351 34.2398 41.5151 33.2198C45.4951 30.3498 49.9751 28.1498 54.8051 26.7598Z" fill="#00539F"/>
<path d="M102.255 92.1897C99.7251 95.9297 96.6151 99.2597 93.0651 102.04C91.3751 100.77 89.5551 99.6297 87.6351 98.6397C89.9451 96.0297 92.0251 93.2497 92.7951 92.1997H91.1251C90.0951 93.5697 88.3051 95.8997 86.3851 98.0297C83.9651 96.8797 81.3951 95.9497 78.7151 95.2497C79.2851 94.0397 79.7251 92.9597 80.0351 92.1997H78.5951C78.2851 92.9497 77.8851 93.8997 77.3951 94.9297C74.0551 94.1697 70.5551 93.7597 66.9851 93.7297V92.1997H65.6451V93.7397C62.0451 93.8097 58.5251 94.2697 55.1751 95.0897C54.6551 93.9897 54.2151 92.9897 53.8951 92.1997H52.4451C52.7651 92.9997 53.2451 94.1497 53.8451 95.4297C51.2151 96.1597 48.6951 97.1097 46.3151 98.2797C44.3251 96.0797 42.4251 93.6297 41.3551 92.1997H39.6851C40.4751 93.2897 42.6651 96.2297 45.0751 98.9097C43.3351 99.8397 41.6951 100.89 40.1451 102.05C36.5951 99.2697 33.4851 95.9397 30.9551 92.1997H29.3451C37.2551 104.41 50.9951 112.5 66.5951 112.5C82.1951 112.5 95.9351 104.41 103.845 92.1997H102.235L102.255 92.1897ZM78.1251 96.4697C80.6751 97.1197 83.1251 97.9797 85.4351 99.0497C85.0551 99.4597 84.6651 99.8497 84.2851 100.21C81.4351 102.96 76.8951 105.96 75.3151 106.97C74.3451 106.47 73.2851 106.06 72.1651 105.75C73.0151 104.62 74.5451 102.53 76.1951 99.9197C76.9151 98.7897 77.5651 97.5997 78.1251 96.4597V96.4697ZM66.9751 95.0597C70.3451 95.0797 73.6351 95.4597 76.7851 96.1497C76.2751 97.1697 75.6951 98.2197 75.0651 99.2097C73.1551 102.22 71.4351 104.52 70.7351 105.41C69.5351 105.17 68.2751 105.03 66.9751 105.01V95.0497V95.0597ZM65.6351 95.0597V105.03C64.3251 105.09 63.0551 105.27 61.8451 105.55C61.2351 104.77 59.4251 102.39 57.4151 99.2097C56.8151 98.2697 56.2651 97.2697 55.7651 96.2997C58.9251 95.5497 62.2451 95.1297 65.6351 95.0597ZM54.4351 96.6397C54.9851 97.7197 55.6051 98.8497 56.2851 99.9297C58.0351 102.69 59.6351 104.86 60.4551 105.94C59.4051 106.27 58.4151 106.7 57.5051 107.2C56.3851 106.49 51.2851 103.21 48.1951 100.22C47.8951 99.9297 47.5851 99.6197 47.2751 99.2997C49.5351 98.2197 51.9351 97.3297 54.4451 96.6497L54.4351 96.6397ZM41.2651 102.87C42.7551 101.77 44.3451 100.79 46.0151 99.9097C46.4251 100.35 46.8451 100.77 47.2551 101.17C50.1151 103.93 54.4651 106.83 56.2351 107.97C55.6051 108.41 55.0351 108.9 54.5151 109.42C49.6951 108.01 45.2151 105.77 41.2551 102.87H41.2651ZM66.6051 111.15C62.9551 111.15 59.4151 110.69 56.0351 109.83C58.5051 107.66 62.4351 106.34 66.6051 106.34C70.7751 106.34 74.7051 107.66 77.1751 109.83C73.7951 110.69 70.2451 111.15 66.6051 111.15ZM78.6851 109.42C78.0751 108.79 77.3851 108.22 76.6151 107.72C78.5651 106.45 82.5451 103.74 85.2151 101.17C85.7051 100.69 86.2051 100.18 86.6951 99.6497C88.5551 100.59 90.3051 101.66 91.9451 102.87C87.9851 105.77 83.5051 108.01 78.6851 109.42Z" fill="#00539F"/>
<path d="M11.875 93.35L5.22496 96.3L4.83496 95.42L11.485 92.47L11.875 93.35Z" fill="#00539F"/>
<path d="M10.525 90.2299L5.54498 91.9499L5.28498 91.1899L5.99498 90.9399C5.32498 90.7599 4.86498 90.3299 4.62498 89.6399C4.52498 89.3399 4.47498 89.0499 4.50498 88.7599C4.52498 88.4699 4.60498 88.2299 4.73498 88.0499C4.86498 87.8699 5.04498 87.6999 5.26498 87.5699C5.41498 87.4799 5.67498 87.3699 6.06498 87.2399L9.12498 86.1799L9.41498 87.0199L6.38498 88.0699C6.04498 88.1899 5.79498 88.3099 5.64498 88.4399C5.49498 88.5599 5.40498 88.7299 5.35498 88.9299C5.31498 89.1299 5.32498 89.3499 5.40498 89.5699C5.52498 89.9299 5.75498 90.1999 6.06498 90.3799C6.37498 90.5599 6.86498 90.5399 7.49498 90.3199L10.215 89.3799L10.505 90.2199L10.525 90.2299Z" fill="#00539F"/>
<path d="M7.28501 82.3398L8.01501 82.0198C8.12501 82.2498 8.20501 82.4598 8.25501 82.6498C8.33501 82.9598 8.34501 83.2198 8.29501 83.4198C8.24501 83.6198 8.13501 83.7698 7.99501 83.8798C7.85501 83.9898 7.51501 84.1098 6.99501 84.2398L4.05501 84.9798L4.21501 85.6098L3.54501 85.7798L3.38501 85.1498L2.12501 85.4698L1.38501 84.7398L3.16501 84.2898L2.94501 83.4198L3.61501 83.2498L3.83501 84.1198L6.82501 83.3598C7.07501 83.2998 7.22501 83.2398 7.28501 83.1898C7.34501 83.1398 7.39501 83.0798 7.41501 82.9998C7.43501 82.9198 7.43501 82.8198 7.40501 82.6898C7.38501 82.5898 7.33501 82.4698 7.27501 82.3198L7.28501 82.3398Z" fill="#00539F"/>
<path d="M5.40505 77.14L5.36505 76.21C5.92505 76.27 6.37505 76.46 6.73505 76.8C7.09505 77.14 7.32505 77.61 7.41505 78.22C7.53505 78.98 7.41505 79.62 7.00505 80.14C6.60505 80.66 5.98505 80.99 5.14505 81.13C4.26505 81.27 3.55505 81.16 2.99505 80.79C2.43505 80.42 2.10505 79.87 1.98505 79.16C1.87505 78.47 2.01505 77.86 2.41505 77.34C2.81505 76.82 3.44505 76.49 4.30505 76.35C4.35505 76.35 4.43505 76.33 4.54505 76.32L5.18505 80.2C5.75505 80.07 6.16505 79.84 6.41505 79.5C6.66505 79.16 6.76505 78.77 6.69505 78.34C6.64505 78.02 6.51505 77.76 6.30505 77.55C6.09505 77.35 5.79505 77.21 5.40505 77.14ZM4.45505 80.27L3.97505 77.37C3.54505 77.48 3.23505 77.65 3.04505 77.86C2.75505 78.2 2.64505 78.59 2.71505 79.04C2.78505 79.44 2.97505 79.76 3.28505 79.99C3.60505 80.22 3.98505 80.31 4.44505 80.27H4.45505Z" fill="#00539F"/>
<path d="M6.76503 74.0098L1.51503 74.3998L1.45503 73.5998L2.25503 73.5398C1.86503 73.3598 1.60503 73.1898 1.47503 73.0298C1.34503 72.8698 1.27503 72.6798 1.25503 72.4698C1.23503 72.1698 1.30503 71.8598 1.47503 71.5298L2.32503 71.7798C2.21503 72.0098 2.16503 72.2298 2.18503 72.4498C2.19503 72.6398 2.27503 72.8198 2.39503 72.9598C2.52503 73.1098 2.69503 73.2098 2.90503 73.2598C3.22503 73.3398 3.57503 73.3598 3.95503 73.3298L6.70503 73.1298L6.77503 74.0198L6.76503 74.0098Z" fill="#00539F"/>
<path d="M6.48502 69.79L1.21502 69.7V68.8999L1.97502 68.91C1.40502 68.51 1.12502 67.9499 1.13502 67.2199C1.13502 66.8999 1.20502 66.61 1.31502 66.35C1.43502 66.09 1.58502 65.8899 1.77502 65.7599C1.96502 65.6299 2.18502 65.54 2.43502 65.49C2.60502 65.46 2.89502 65.45 3.30502 65.45L6.54502 65.5V66.39L3.32502 66.34C2.96502 66.34 2.68502 66.36 2.50502 66.43C2.32502 66.5 2.17502 66.62 2.06502 66.79C1.95502 66.97 1.89502 67.17 1.89502 67.41C1.89502 67.79 2.00502 68.1199 2.24502 68.3999C2.48502 68.6799 2.93502 68.83 3.61502 68.84L6.49502 68.89V69.78L6.48502 69.79Z" fill="#00539F"/>
<path d="M6.46499 59.7999C6.70499 60.1599 6.86499 60.4999 6.94499 60.8199C7.02499 61.1399 7.04499 61.4699 6.99499 61.8199C6.92499 62.3899 6.73499 62.8199 6.41499 63.0899C6.09499 63.3599 5.71499 63.4799 5.28499 63.4199C5.02499 63.3899 4.80499 63.2999 4.60499 63.1599C4.40499 63.0199 4.25499 62.8399 4.15499 62.6399C4.04499 62.4399 3.97499 62.2099 3.94499 61.9699C3.91499 61.7899 3.90499 61.5199 3.90499 61.1699C3.90499 60.4399 3.86499 59.8999 3.79499 59.5499C3.67499 59.5299 3.59499 59.5199 3.56499 59.5199C3.20499 59.4799 2.93499 59.5199 2.77499 59.6799C2.54499 59.8799 2.40499 60.2099 2.35499 60.6499C2.30499 61.0699 2.34499 61.3799 2.46499 61.5999C2.58499 61.8199 2.82499 61.9899 3.18499 62.1299L2.96499 62.9799C2.60499 62.8599 2.31499 62.6899 2.11499 62.4799C1.91499 62.2699 1.76499 61.9899 1.68499 61.6299C1.60499 61.2699 1.58499 60.8699 1.64499 60.4199C1.69499 59.9699 1.79499 59.6199 1.93499 59.3499C2.07499 59.0799 2.23499 58.8899 2.40499 58.7799C2.57499 58.6699 2.79499 58.5999 3.04499 58.5799C3.19499 58.5699 3.47499 58.5799 3.86499 58.6299L5.04499 58.7699C5.86499 58.8699 6.39499 58.9099 6.61499 58.8999C6.83499 58.8899 7.05499 58.8399 7.27499 58.7499L7.16499 59.6799C6.96499 59.7499 6.74499 59.7799 6.49499 59.7799L6.46499 59.7999ZM4.47499 59.6299C4.56499 59.9699 4.62499 60.4599 4.63499 61.1199C4.63499 61.4899 4.67499 61.7599 4.71499 61.9099C4.76499 62.0699 4.84499 62.1999 4.96499 62.2899C5.08499 62.3799 5.21499 62.4499 5.37499 62.4599C5.61499 62.4899 5.81499 62.4199 5.99499 62.2599C6.17499 62.0999 6.28499 61.8499 6.32499 61.4999C6.36499 61.1599 6.32499 60.8499 6.21499 60.5599C6.09499 60.2799 5.91499 60.0599 5.67499 59.8999C5.48499 59.7799 5.19499 59.6999 4.80499 59.6499L4.47499 59.6099V59.6299Z" fill="#00539F"/>
<path d="M7.24502 54.7699L8.04502 54.7999C8.04502 55.0599 8.02502 55.2799 7.98502 55.4799C7.91502 55.7999 7.81502 56.0299 7.68502 56.1899C7.54502 56.3399 7.39502 56.4399 7.21502 56.4799C7.03502 56.5199 6.68502 56.4799 6.16502 56.3699L3.19502 55.7499L3.06502 56.3899L2.38502 56.2499L2.51502 55.6099L1.23502 55.3399L0.89502 54.3599L2.69502 54.7399L2.87502 53.8599L3.55502 53.9999L3.37502 54.8799L6.39502 55.5099C6.64502 55.5599 6.80502 55.5799 6.88502 55.5599C6.96502 55.5399 7.02502 55.5099 7.08502 55.4399C7.14502 55.3799 7.18502 55.2799 7.20502 55.1499C7.22502 55.0499 7.24502 54.9199 7.25502 54.7599L7.24502 54.7699Z" fill="#00539F"/>
<path d="M2.43507 51.5699L1.44507 51.2999L1.67507 50.4399L2.66507 50.7099L2.43507 51.5699ZM8.46507 53.1899L3.37507 51.8199L3.60507 50.9599L8.69507 52.3299L8.46507 53.1899Z" fill="#00539F"/>
<path d="M6.70508 49.5998C5.78508 49.2698 5.19508 48.7698 4.93508 48.0998C4.71508 47.5398 4.72508 46.9598 4.93508 46.3398C5.17508 45.6598 5.60508 45.1798 6.20508 44.9098C6.80508 44.6398 7.50508 44.6398 8.28508 44.9198C8.92508 45.1498 9.39508 45.4198 9.68508 45.7498C9.98508 46.0698 10.1651 46.4498 10.2351 46.8898C10.3051 47.3298 10.2651 47.7598 10.1151 48.1998C9.86507 48.8898 9.44508 49.3798 8.84508 49.6498C8.24508 49.9198 7.52508 49.8998 6.69508 49.5998H6.70508ZM7.01508 48.7398C7.64508 48.9698 8.17508 48.9998 8.59508 48.8298C9.01508 48.6698 9.29508 48.3698 9.44508 47.9498C9.59508 47.5298 9.55508 47.1298 9.34508 46.7398C9.12508 46.3498 8.69508 46.0398 8.04508 45.7998C7.43508 45.5798 6.91508 45.5498 6.50508 45.7198C6.08508 45.8898 5.80508 46.1798 5.65508 46.5898C5.50508 47.0098 5.53508 47.4198 5.75508 47.8098C5.97508 48.1998 6.39508 48.5098 7.03508 48.7298L7.01508 48.7398Z" fill="#00539F"/>
<path d="M11.585 44.14L6.84497 41.84L7.19497 41.12L7.86497 41.45C7.51497 40.85 7.49497 40.22 7.81497 39.56C7.95497 39.27 8.13497 39.04 8.35497 38.85C8.57497 38.66 8.79497 38.55 9.02497 38.51C9.24497 38.47 9.48497 38.48 9.73497 38.55C9.89497 38.59 10.165 38.7 10.535 38.88L13.455 40.29L13.065 41.09L10.185 39.69C9.85497 39.53 9.59497 39.44 9.40497 39.43C9.21497 39.42 9.02497 39.46 8.85497 39.57C8.68497 39.68 8.54497 39.85 8.43497 40.06C8.26497 40.4 8.23497 40.75 8.33497 41.1C8.43497 41.45 8.78497 41.78 9.39497 42.07L11.985 43.32L11.595 44.12L11.585 44.14Z" fill="#00539F"/>
<path d="M15.775 35.1C15.835 35.53 15.835 35.9 15.775 36.22C15.715 36.54 15.585 36.85 15.405 37.15C15.095 37.64 14.745 37.94 14.335 38.06C13.935 38.17 13.545 38.11 13.165 37.88C12.945 37.74 12.775 37.57 12.655 37.36C12.535 37.15 12.475 36.93 12.465 36.7C12.455 36.47 12.485 36.24 12.555 36C12.605 35.83 12.715 35.58 12.865 35.26C13.175 34.6 13.365 34.1 13.445 33.75C13.345 33.68 13.275 33.64 13.245 33.62C12.935 33.43 12.675 33.36 12.455 33.43C12.165 33.52 11.895 33.75 11.655 34.13C11.435 34.49 11.335 34.79 11.345 35.04C11.365 35.29 11.505 35.55 11.775 35.83L11.215 36.51C10.935 36.24 10.755 35.97 10.655 35.7C10.555 35.42 10.545 35.11 10.625 34.75C10.705 34.39 10.865 34.02 11.105 33.64C11.345 33.26 11.585 32.98 11.825 32.79C12.065 32.61 12.285 32.5 12.495 32.48C12.705 32.46 12.925 32.48 13.155 32.57C13.295 32.63 13.535 32.76 13.875 32.97L14.885 33.6C15.585 34.04 16.045 34.3 16.255 34.39C16.465 34.47 16.675 34.52 16.915 34.53L16.425 35.32C16.215 35.3 16.005 35.24 15.775 35.13V35.1ZM14.045 34.11C13.985 34.46 13.825 34.93 13.555 35.53C13.405 35.87 13.315 36.12 13.295 36.29C13.275 36.46 13.295 36.6 13.355 36.74C13.415 36.88 13.515 36.99 13.645 37.07C13.845 37.2 14.065 37.22 14.295 37.16C14.525 37.09 14.735 36.91 14.915 36.62C15.095 36.33 15.195 36.03 15.205 35.72C15.215 35.41 15.145 35.14 14.995 34.89C14.875 34.7 14.645 34.5 14.315 34.29L14.035 34.12L14.045 34.11Z" fill="#00539F"/>
<path d="M18.085 32.9299L12.245 28.5999L12.775 27.8799L18.615 32.2099L18.085 32.9299Z" fill="#00539F"/>
<path d="M19.755 25.1698C18.915 24.3098 18.485 23.3998 18.465 22.4598C18.455 21.5198 18.815 20.6898 19.545 19.9698C20.025 19.4998 20.575 19.1898 21.185 19.0498C21.795 18.8998 22.405 18.9398 23.005 19.1498C23.605 19.3598 24.165 19.7298 24.675 20.2498C25.195 20.7798 25.545 21.3498 25.735 21.9798C25.925 22.5998 25.935 23.2098 25.755 23.8098C25.575 24.4098 25.255 24.9198 24.805 25.3698C24.315 25.8498 23.765 26.1598 23.145 26.2998C22.525 26.4398 21.925 26.3998 21.325 26.1898C20.725 25.9798 20.205 25.6398 19.755 25.1798V25.1698ZM20.475 24.4898C21.085 25.1198 21.735 25.4498 22.425 25.4798C23.115 25.5098 23.715 25.2798 24.225 24.7798C24.745 24.2698 24.995 23.6798 24.975 22.9798C24.955 22.2898 24.615 21.6098 23.965 20.9398C23.555 20.5198 23.115 20.2198 22.665 20.0398C22.215 19.8598 21.765 19.8198 21.315 19.9198C20.865 20.0198 20.475 20.2298 20.135 20.5698C19.645 21.0498 19.395 21.6198 19.365 22.2998C19.345 22.9798 19.715 23.7098 20.475 24.4898Z" fill="#00539F"/>
<path d="M28.755 21.6599L25.495 17.5199L26.125 17.0199L26.615 17.6499C26.545 17.2299 26.545 16.9199 26.605 16.7199C26.665 16.5199 26.785 16.3499 26.945 16.2299C27.185 16.0399 27.485 15.9299 27.845 15.8899L28.115 16.7299C27.865 16.7599 27.655 16.8499 27.485 16.9799C27.335 17.0999 27.235 17.2599 27.185 17.4399C27.135 17.6299 27.145 17.8299 27.225 18.0299C27.345 18.3399 27.515 18.6399 27.755 18.9399L29.465 21.1099L28.765 21.6599H28.755Z" fill="#00539F"/>
<path d="M32.2151 19.5298L33.0151 19.1598C33.1951 19.3598 33.3851 19.4698 33.5851 19.4798C33.8651 19.4998 34.1551 19.3998 34.4851 19.1898C34.8351 18.9598 35.0551 18.7198 35.1551 18.4598C35.2551 18.1998 35.2551 17.9198 35.1551 17.6298C35.0951 17.4498 34.9051 17.1198 34.5851 16.6398C34.5051 17.2398 34.2251 17.6998 33.7451 18.0098C33.1351 18.4098 32.5251 18.4898 31.9051 18.2698C31.2851 18.0498 30.7751 17.6298 30.3751 17.0198C30.0951 16.5998 29.9251 16.1598 29.8451 15.7098C29.7651 15.2498 29.8051 14.8398 29.9651 14.4498C30.1251 14.0598 30.4051 13.7498 30.7951 13.4898C31.3151 13.1498 31.8851 13.0798 32.4951 13.2798L32.1451 12.7498L32.8351 12.2998L35.3251 16.1098C35.7751 16.7998 36.0251 17.3298 36.0651 17.7098C36.1151 18.0898 36.0351 18.4598 35.8451 18.8198C35.6451 19.1798 35.3351 19.5098 34.8851 19.7998C34.3551 20.1398 33.8551 20.2998 33.3751 20.2798C32.8951 20.2598 32.5051 19.9998 32.2051 19.5198L32.2151 19.5298ZM31.1051 16.4798C31.4851 17.0598 31.8751 17.4098 32.2751 17.5198C32.6751 17.6298 33.0551 17.5798 33.3951 17.3498C33.7351 17.1298 33.9351 16.8098 33.9951 16.3898C34.0551 15.9698 33.9051 15.4798 33.5351 14.9198C33.1851 14.3798 32.7951 14.0498 32.3751 13.9298C31.9551 13.8098 31.5751 13.8598 31.2451 14.0798C30.9151 14.2998 30.7151 14.6198 30.6651 15.0398C30.6051 15.4598 30.7551 15.9398 31.1051 16.4698V16.4798Z" fill="#00539F"/>
<path d="M40.385 13.4898C40.215 13.8898 40.025 14.2098 39.805 14.4498C39.585 14.6898 39.315 14.8898 39.005 15.0498C38.485 15.3098 38.025 15.3898 37.625 15.2798C37.215 15.1698 36.915 14.9198 36.715 14.5298C36.595 14.2998 36.545 14.0598 36.555 13.8198C36.565 13.5798 36.625 13.3498 36.735 13.1498C36.845 12.9498 36.995 12.7698 37.175 12.5998C37.315 12.4798 37.525 12.3198 37.825 12.1198C38.425 11.7198 38.855 11.3798 39.105 11.1198C39.055 11.0098 39.015 10.9398 39.005 10.9098C38.835 10.5898 38.645 10.3998 38.435 10.3398C38.145 10.2598 37.795 10.3298 37.395 10.5298C37.015 10.7198 36.775 10.9298 36.665 11.1498C36.555 11.3698 36.545 11.6698 36.625 12.0498L35.795 12.3398C35.695 11.9698 35.675 11.6398 35.735 11.3598C35.795 11.0698 35.945 10.7998 36.195 10.5298C36.445 10.2598 36.775 10.0298 37.175 9.81983C37.575 9.61983 37.925 9.49983 38.225 9.45983C38.525 9.42983 38.765 9.45983 38.955 9.52983C39.145 9.59983 39.325 9.74983 39.475 9.94983C39.575 10.0698 39.705 10.3098 39.885 10.6598L40.425 11.7198C40.805 12.4598 41.055 12.9198 41.195 13.0998C41.325 13.2798 41.495 13.4298 41.685 13.5598L40.855 13.9798C40.685 13.8598 40.535 13.6898 40.405 13.4798L40.385 13.4898ZM39.415 11.7498C39.185 12.0198 38.805 12.3398 38.265 12.7098C37.965 12.9198 37.755 13.0898 37.655 13.2198C37.545 13.3498 37.485 13.4898 37.475 13.6398C37.465 13.7898 37.485 13.9398 37.555 14.0698C37.665 14.2798 37.835 14.4198 38.065 14.4798C38.295 14.5398 38.565 14.4898 38.875 14.3298C39.185 14.1698 39.415 13.9698 39.585 13.7098C39.755 13.4498 39.835 13.1798 39.835 12.8898C39.835 12.6698 39.735 12.3798 39.555 12.0298L39.405 11.7398L39.415 11.7498Z" fill="#00539F"/>
<path d="M43.4251 12.7998L41.5551 7.87977L42.3051 7.58977L42.5751 8.28977C42.7351 7.60977 43.1551 7.13977 43.8351 6.87977C44.1351 6.76977 44.4251 6.71977 44.7151 6.72977C45.0051 6.73977 45.2451 6.80977 45.4351 6.93977C45.6251 7.06977 45.7851 7.23977 45.9251 7.45977C46.0151 7.59977 46.1351 7.86977 46.2751 8.24977L47.4251 11.2798L46.5951 11.5998L45.4551 8.59977C45.3251 8.25977 45.1951 8.01977 45.0651 7.86977C44.9351 7.71977 44.7751 7.63977 44.5651 7.59977C44.3651 7.55977 44.1451 7.58977 43.9251 7.66977C43.5651 7.80977 43.3051 8.02977 43.1351 8.35977C42.9651 8.67977 42.9951 9.15977 43.2351 9.78977L44.2551 12.4798L43.4251 12.7998Z" fill="#00539F"/>
<path d="M47.8551 4.62989L47.5651 3.63989L48.4251 3.38989L48.7151 4.37989L47.8551 4.62989ZM49.5951 10.6299L48.1251 5.56989L48.9851 5.31989L50.4551 10.3799L49.5951 10.6299Z" fill="#00539F"/>
<path d="M52.135 9.88981L51.985 9.17981L54.475 4.71981C54.105 4.81981 53.785 4.89981 53.495 4.95981L51.395 5.39981L51.245 4.68981L55.455 3.80981L55.575 4.38981L53.465 8.24981L53.055 8.95981C53.445 8.84981 53.805 8.75981 54.145 8.68981L56.525 8.18981L56.685 8.93981L52.125 9.89981L52.135 9.88981Z" fill="#00539F"/>
<path d="M61.755 7.66977C61.455 7.97977 61.155 8.20977 60.865 8.35977C60.575 8.50977 60.255 8.59977 59.905 8.62977C59.325 8.68977 58.875 8.59977 58.535 8.34977C58.195 8.09977 58.005 7.75977 57.955 7.31977C57.925 7.05977 57.955 6.81977 58.055 6.59977C58.145 6.37977 58.285 6.18977 58.465 6.03977C58.645 5.88977 58.845 5.76977 59.075 5.67977C59.245 5.61977 59.505 5.53977 59.855 5.45977C60.565 5.29977 61.085 5.13977 61.405 4.98977C61.405 4.86977 61.385 4.78977 61.385 4.75977C61.345 4.39977 61.235 4.14977 61.055 4.01977C60.805 3.83977 60.455 3.77977 60.015 3.81977C59.595 3.85977 59.295 3.96977 59.115 4.13977C58.935 4.30977 58.815 4.57977 58.755 4.95977L57.875 4.92977C57.915 4.54977 58.015 4.23977 58.175 3.98977C58.335 3.73977 58.575 3.53977 58.905 3.37977C59.235 3.21977 59.625 3.11977 60.075 3.06977C60.525 3.01977 60.895 3.03977 61.185 3.10977C61.475 3.18977 61.695 3.29977 61.845 3.43977C61.995 3.58977 62.105 3.77977 62.185 4.01977C62.225 4.16977 62.275 4.43977 62.315 4.82977L62.435 6.00977C62.525 6.83977 62.595 7.35977 62.655 7.56977C62.715 7.77977 62.815 7.98977 62.945 8.17977L62.015 8.27977C61.905 8.10977 61.825 7.89977 61.775 7.64977L61.755 7.66977ZM61.475 5.68977C61.165 5.85977 60.695 6.01977 60.055 6.17977C59.695 6.26977 59.445 6.35977 59.295 6.43977C59.145 6.51977 59.045 6.62977 58.975 6.75977C58.905 6.89977 58.875 7.03977 58.895 7.19977C58.915 7.43977 59.025 7.61977 59.225 7.75977C59.425 7.89977 59.695 7.94977 60.035 7.91977C60.375 7.87977 60.675 7.77977 60.925 7.59977C61.175 7.41977 61.355 7.19977 61.445 6.91977C61.525 6.70977 61.535 6.40977 61.495 6.01977L61.465 5.68977H61.475Z" fill="#00539F"/>
<path d="M66.8351 7.30978L66.9751 8.09978C66.7251 8.15978 66.5051 8.18978 66.3051 8.18978C65.9851 8.18978 65.7251 8.14978 65.5451 8.04978C65.3651 7.94978 65.2351 7.81978 65.1651 7.64978C65.0951 7.47978 65.0451 7.12978 65.0351 6.59978L64.9751 3.56978H64.3151L64.3051 2.88978H64.9551L64.9251 1.56978L65.8051 1.01978L65.8451 2.85978L66.7451 2.83978V3.52978L65.8651 3.54978L65.9251 6.62978C65.9251 6.87978 65.9451 7.04978 65.9851 7.11978C66.0151 7.18978 66.0651 7.24978 66.1451 7.28978C66.2251 7.32978 66.3151 7.34978 66.4551 7.34978C66.5551 7.34978 66.6851 7.32978 66.8451 7.30978H66.8351Z" fill="#00539F"/>
<path d="M68.635 8.14988L68.825 2.88988L69.715 2.91988L69.525 8.17988L68.635 8.14988ZM68.865 1.90988L68.905 0.879883L69.795 0.909883L69.755 1.93988L68.865 1.90988Z" fill="#00539F"/>
<path d="M71.7351 5.62996C71.8451 4.65996 72.1951 3.96996 72.7951 3.56996C73.2951 3.23996 73.8651 3.09996 74.5051 3.17996C75.2251 3.25996 75.7851 3.56996 76.1851 4.08996C76.5851 4.60996 76.7351 5.28996 76.6451 6.11996C76.5651 6.78996 76.405 7.30996 76.155 7.66996C75.905 8.02996 75.5751 8.29996 75.1651 8.46996C74.7551 8.63996 74.3251 8.69996 73.8651 8.63996C73.1351 8.54996 72.5651 8.24996 72.1751 7.72996C71.7751 7.20996 71.6351 6.49996 71.7351 5.61996V5.62996ZM72.6451 5.73996C72.5651 6.40996 72.645 6.92996 72.905 7.29996C73.165 7.66996 73.5051 7.87996 73.9551 7.92996C74.3951 7.97996 74.7851 7.85996 75.1151 7.55996C75.4451 7.25996 75.6551 6.76996 75.7351 6.07996C75.8151 5.42996 75.7251 4.92996 75.4651 4.55996C75.2051 4.18996 74.8651 3.97996 74.4251 3.92996C73.9851 3.87996 73.595 3.99996 73.265 4.29996C72.935 4.59996 72.725 5.07996 72.655 5.74996L72.6451 5.73996Z" fill="#00539F"/>
<path d="M78.175 9.14L79.345 4L80.125 4.18L79.955 4.91C80.465 4.43 81.075 4.27 81.785 4.43C82.095 4.5 82.365 4.62 82.605 4.79C82.835 4.96 83.005 5.15 83.085 5.36C83.165 5.57 83.215 5.8 83.205 6.07C83.205 6.24 83.155 6.52 83.065 6.93L82.345 10.09L81.475 9.89L82.1851 6.77C82.2651 6.42 82.295 6.14 82.265 5.95C82.235 5.76 82.1451 5.59 82.0051 5.45C81.8551 5.31 81.6651 5.21 81.4351 5.15C81.0651 5.07 80.715 5.11 80.3951 5.29C80.0751 5.46 79.8351 5.88 79.6851 6.54L79.0451 9.35L78.175 9.15V9.14Z" fill="#00539F"/>
<path d="M88.235 12.0199L89.895 7.75985L89.155 7.46985L89.405 6.81985L90.135 7.10985L90.335 6.58985C90.465 6.25985 90.585 6.02985 90.705 5.88985C90.865 5.70985 91.075 5.58985 91.335 5.52985C91.585 5.46985 91.895 5.51985 92.265 5.65985C92.495 5.74985 92.745 5.87985 93.005 6.04985L92.595 6.72985C92.435 6.62985 92.275 6.54985 92.125 6.48985C91.875 6.38985 91.675 6.37985 91.525 6.43985C91.375 6.50985 91.245 6.68985 91.135 6.97985L90.955 7.42985L91.915 7.79985L91.665 8.44985L90.705 8.07985L89.045 12.3398L88.215 12.0199H88.235Z" fill="#00539F"/>
<path d="M92.3151 10.7899C92.7451 9.90991 93.3051 9.37991 93.9951 9.19991C94.5751 9.04991 95.1551 9.11991 95.7451 9.39991C96.3951 9.71991 96.8251 10.1899 97.0251 10.8199C97.2251 11.4499 97.1451 12.1399 96.7751 12.8899C96.4751 13.4999 96.1551 13.9299 95.7951 14.1899C95.4451 14.4499 95.0451 14.5899 94.5951 14.6099C94.1451 14.6299 93.7251 14.5399 93.3151 14.3399C92.6551 14.0199 92.2251 13.5399 92.0251 12.9199C91.8251 12.2999 91.9251 11.5799 92.3151 10.7799V10.7899ZM93.1351 11.1899C92.8351 11.7999 92.7451 12.3099 92.8651 12.7499C92.9851 13.1799 93.2451 13.4899 93.6451 13.6899C94.0451 13.8899 94.4451 13.8999 94.8651 13.7199C95.2851 13.5399 95.6351 13.1499 95.9451 12.5299C96.2351 11.9499 96.3151 11.4399 96.1951 11.0099C96.0751 10.5799 95.8151 10.2699 95.4251 10.0699C95.0251 9.86991 94.6151 9.85991 94.2051 10.0299C93.7951 10.1999 93.4451 10.5899 93.1451 11.1899H93.1351Z" fill="#00539F"/>
<path d="M97.2051 16.2898L99.9351 11.7898L100.625 12.2098L100.215 12.8898C100.585 12.6798 100.875 12.5598 101.085 12.5498C101.295 12.5398 101.485 12.5898 101.665 12.6898C101.925 12.8498 102.135 13.0898 102.305 13.4098L101.615 13.9598C101.495 13.7398 101.345 13.5698 101.155 13.4598C100.985 13.3598 100.805 13.3198 100.615 13.3398C100.425 13.3598 100.245 13.4398 100.075 13.5898C99.8251 13.8098 99.6051 14.0798 99.4051 14.3998L97.9751 16.7598L97.2151 16.2998L97.2051 16.2898Z" fill="#00539F"/>
<path d="M105.175 18.7698L105.915 19.2998C105.715 19.6098 105.595 19.8998 105.565 20.1798C105.535 20.4598 105.595 20.7598 105.755 21.0798C105.915 21.3998 106.155 21.6998 106.465 21.9698C106.745 22.2098 107.025 22.3798 107.315 22.4698C107.605 22.5698 107.855 22.5898 108.085 22.5298C108.315 22.4698 108.495 22.3598 108.645 22.1898C108.795 22.0198 108.875 21.8198 108.885 21.6098C108.885 21.3898 108.825 21.1398 108.665 20.8598C108.565 20.6798 108.315 20.3098 107.905 19.7498C107.495 19.1998 107.245 18.7798 107.125 18.4998C106.975 18.1398 106.925 17.7998 106.975 17.4798C107.015 17.1598 107.145 16.8798 107.365 16.6198C107.605 16.3398 107.905 16.1498 108.265 16.0398C108.635 15.9298 109.015 15.9398 109.435 16.0798C109.845 16.2098 110.235 16.4398 110.615 16.7498C111.025 17.0998 111.335 17.4698 111.535 17.8698C111.735 18.2698 111.815 18.6698 111.765 19.0698C111.715 19.4698 111.555 19.8398 111.295 20.1698L110.545 19.6298C110.805 19.2498 110.905 18.8698 110.835 18.5098C110.765 18.1498 110.525 17.7798 110.095 17.4198C109.655 17.0398 109.255 16.8498 108.915 16.8398C108.575 16.8298 108.305 16.9398 108.115 17.1698C107.945 17.3698 107.875 17.5898 107.915 17.8398C107.945 18.0898 108.205 18.5298 108.685 19.1698C109.165 19.8098 109.475 20.2798 109.615 20.5698C109.815 20.9898 109.885 21.3798 109.845 21.7398C109.805 22.0998 109.655 22.4298 109.405 22.7198C109.155 23.0098 108.835 23.2198 108.445 23.3398C108.055 23.4598 107.635 23.4498 107.195 23.3398C106.755 23.2198 106.335 22.9898 105.945 22.6498C105.445 22.2198 105.085 21.7898 104.865 21.3598C104.645 20.9298 104.575 20.4798 104.625 20.0198C104.675 19.5598 104.865 19.1398 105.165 18.7698H105.175Z" fill="#00539F"/>
<path d="M111.445 26.6198L110.975 27.2598C110.765 27.1198 110.585 26.9698 110.445 26.8298C110.215 26.5998 110.075 26.3798 110.025 26.1798C109.975 25.9798 109.985 25.7998 110.055 25.6298C110.125 25.4598 110.345 25.1898 110.735 24.8198L112.905 22.6998L112.445 22.2298L112.945 21.7398L113.405 22.2098L114.335 21.2998L115.335 21.5598L114.015 22.8498L114.645 23.4898L114.145 23.9798L113.515 23.3398L111.315 25.4898C111.135 25.6698 111.025 25.7898 110.995 25.8698C110.965 25.9498 110.955 26.0198 110.975 26.0998C110.995 26.1798 111.045 26.2698 111.145 26.3598C111.215 26.4298 111.315 26.5198 111.445 26.6198Z" fill="#00539F"/>
<path d="M114.765 30.6899C114.335 30.6099 113.985 30.4899 113.695 30.3299C113.415 30.1699 113.155 29.9499 112.935 29.6799C112.565 29.2299 112.395 28.7999 112.415 28.3799C112.435 27.9599 112.615 27.6099 112.955 27.3299C113.155 27.1699 113.375 27.0599 113.615 27.0199C113.855 26.9799 114.085 26.9799 114.305 27.0499C114.525 27.1099 114.735 27.2199 114.935 27.3599C115.085 27.4699 115.285 27.6399 115.545 27.8899C116.075 28.3899 116.485 28.7399 116.795 28.9199C116.895 28.8399 116.955 28.7999 116.975 28.7799C117.255 28.5499 117.395 28.3199 117.405 28.0999C117.415 27.7999 117.275 27.4699 116.995 27.1199C116.725 26.7999 116.475 26.5999 116.235 26.5399C115.995 26.4799 115.695 26.5399 115.345 26.6899L114.885 25.9399C115.225 25.7599 115.535 25.6699 115.835 25.6699C116.135 25.6699 116.435 25.7499 116.745 25.9399C117.055 26.1299 117.365 26.3899 117.645 26.7399C117.935 27.0899 118.125 27.3999 118.215 27.6899C118.315 27.9699 118.345 28.2199 118.305 28.4199C118.265 28.6199 118.165 28.8199 118.015 29.0199C117.915 29.1399 117.715 29.3299 117.405 29.5799L116.485 30.3399C115.845 30.8699 115.455 31.2199 115.305 31.3899C115.155 31.5599 115.045 31.7499 114.965 31.9699L114.375 31.2499C114.455 31.0599 114.585 30.8799 114.765 30.6999V30.6899ZM116.255 29.3599C115.945 29.1899 115.555 28.8899 115.065 28.4499C114.795 28.1999 114.575 28.0399 114.435 27.9599C114.285 27.8799 114.135 27.8599 113.985 27.8699C113.835 27.8899 113.695 27.9499 113.575 28.0399C113.395 28.1899 113.295 28.3899 113.285 28.6299C113.285 28.8699 113.385 29.1199 113.605 29.3899C113.825 29.6599 114.075 29.8399 114.365 29.9499C114.655 30.0599 114.935 30.0799 115.215 30.0099C115.435 29.9599 115.695 29.7999 115.995 29.5499L116.245 29.3399L116.255 29.3599Z" fill="#00539F"/>
<path d="M116.095 33.5099L120.495 30.6099L120.935 31.2799L120.305 31.6899C121.005 31.6899 121.555 31.9999 121.955 32.6099C122.125 32.8799 122.245 33.1499 122.295 33.4399C122.345 33.7299 122.335 33.9699 122.245 34.1899C122.155 34.4099 122.035 34.5999 121.845 34.7899C121.725 34.9099 121.495 35.0799 121.145 35.3099L118.435 37.0899L117.945 36.3399L120.625 34.5799C120.925 34.3799 121.135 34.1999 121.245 34.0399C121.355 33.8799 121.415 33.6999 121.405 33.4899C121.405 33.2799 121.325 33.0799 121.195 32.8799C120.985 32.5599 120.705 32.3599 120.355 32.2599C120.005 32.1599 119.545 32.2999 118.975 32.6699L116.575 34.2499L116.085 33.4999L116.095 33.5099Z" fill="#00539F"/>
<path d="M121.125 42.0298L121.715 41.7298C121.095 41.6698 120.645 41.3498 120.345 40.7798C120.155 40.4098 120.075 40.0098 120.125 39.5898C120.165 39.1698 120.335 38.7798 120.615 38.4198C120.895 38.0598 121.275 37.7498 121.755 37.5098C122.225 37.2698 122.685 37.1298 123.145 37.0898C123.605 37.0498 124.015 37.1298 124.385 37.3398C124.745 37.5498 125.025 37.8398 125.225 38.2298C125.375 38.5098 125.435 38.7898 125.435 39.0798C125.435 39.3598 125.365 39.6198 125.245 39.8598L127.565 38.6698L127.975 39.4598L121.505 42.7898L121.125 42.0498V42.0298ZM122.175 38.3198C121.575 38.6298 121.195 38.9898 121.025 39.3898C120.855 39.7898 120.865 40.1698 121.045 40.5098C121.225 40.8598 121.515 41.0798 121.925 41.1798C122.335 41.2798 122.825 41.1798 123.415 40.8798C124.055 40.5498 124.465 40.1798 124.635 39.7798C124.805 39.3798 124.805 38.9998 124.615 38.6398C124.435 38.2898 124.135 38.0698 123.725 37.9798C123.315 37.8898 122.805 38.0098 122.185 38.3298L122.175 38.3198Z" fill="#00539F"/>
<path d="M124.265 47.7698C123.885 47.5598 123.585 47.3398 123.365 47.0898C123.145 46.8498 122.975 46.5598 122.845 46.2298C122.635 45.6898 122.605 45.2198 122.765 44.8298C122.925 44.4398 123.195 44.1598 123.605 44.0098C123.845 43.9198 124.085 43.8898 124.325 43.9198C124.565 43.9498 124.785 44.0298 124.965 44.1698C125.145 44.3098 125.325 44.4698 125.465 44.6598C125.575 44.8098 125.705 45.0398 125.875 45.3498C126.215 45.9898 126.495 46.4498 126.735 46.7298C126.855 46.6898 126.925 46.6598 126.955 46.6498C127.295 46.5198 127.505 46.3498 127.585 46.1398C127.695 45.8498 127.665 45.4998 127.505 45.0798C127.355 44.6898 127.175 44.4298 126.965 44.2898C126.755 44.1598 126.455 44.1098 126.075 44.1598L125.875 43.2998C126.255 43.2398 126.585 43.2498 126.865 43.3398C127.145 43.4298 127.405 43.6098 127.645 43.8898C127.885 44.1698 128.085 44.5198 128.245 44.9398C128.405 45.3598 128.485 45.7198 128.495 46.0198C128.505 46.3198 128.445 46.5598 128.345 46.7398C128.245 46.9198 128.085 47.0798 127.875 47.2198C127.745 47.2998 127.495 47.4098 127.125 47.5598L126.015 47.9898C125.245 48.2898 124.755 48.4898 124.565 48.6098C124.375 48.7198 124.205 48.8698 124.055 49.0498L123.725 48.1798C123.865 48.0298 124.045 47.8898 124.265 47.7798V47.7698ZM126.095 46.9798C125.855 46.7298 125.575 46.3098 125.255 45.7398C125.075 45.4198 124.925 45.1998 124.805 45.0798C124.685 44.9598 124.555 44.8898 124.405 44.8598C124.255 44.8298 124.115 44.8398 123.965 44.8998C123.745 44.9898 123.585 45.1398 123.505 45.3698C123.425 45.5998 123.445 45.8698 123.565 46.1898C123.685 46.5098 123.865 46.7698 124.105 46.9698C124.345 47.1698 124.605 47.2798 124.895 47.2998C125.115 47.3198 125.415 47.2498 125.775 47.1098L126.085 46.9898L126.095 46.9798Z" fill="#00539F"/>
<path d="M124.615 50.91L129.685 49.47L129.905 50.24L129.135 50.46C129.555 50.55 129.835 50.67 130.005 50.8C130.175 50.93 130.275 51.1 130.335 51.3C130.415 51.59 130.405 51.91 130.305 52.26L129.425 52.19C129.485 51.94 129.495 51.72 129.425 51.51C129.375 51.32 129.265 51.17 129.115 51.05C128.965 50.93 128.775 50.87 128.555 50.86C128.225 50.86 127.875 50.9 127.515 51L124.865 51.76L124.615 50.9V50.91Z" fill="#00539F"/>
<path d="M126.365 58.3698L127.015 58.2498C126.435 58.0198 126.095 57.5898 125.975 56.9498C125.895 56.5398 125.935 56.1398 126.095 55.7498C126.255 55.3598 126.525 55.0298 126.895 54.7698C127.265 54.4998 127.715 54.3198 128.245 54.2198C128.765 54.1198 129.245 54.1198 129.705 54.2198C130.155 54.3098 130.535 54.5098 130.825 54.8098C131.115 55.1098 131.295 55.4798 131.385 55.8998C131.445 56.2098 131.435 56.4998 131.345 56.7698C131.255 57.0398 131.125 57.2698 130.945 57.4598L133.505 56.9698L133.675 57.8398L126.535 59.1998L126.375 58.3898L126.365 58.3698ZM128.425 55.1098C127.765 55.2398 127.295 55.4698 127.015 55.8098C126.735 56.1498 126.635 56.5098 126.715 56.8898C126.785 57.2698 127.005 57.5698 127.375 57.7798C127.745 57.9898 128.245 58.0298 128.885 57.9098C129.595 57.7798 130.085 57.5398 130.365 57.1998C130.645 56.8598 130.745 56.4998 130.675 56.0998C130.605 55.7098 130.385 55.4098 130.015 55.2098C129.645 55.0098 129.125 54.9698 128.435 55.0998L128.425 55.1098Z" fill="#00539F"/>
<path d="M126.795 61.4399L132.035 60.8699L132.135 61.7599L126.895 62.3299L126.795 61.4399ZM133.005 60.7699L134.025 60.6599L134.125 61.5499L133.105 61.6599L133.005 60.7699Z" fill="#00539F"/>
<path d="M127.085 64.0798L127.805 64.0598L131.765 67.2798C131.735 66.8998 131.715 66.5698 131.705 66.2698L131.635 64.1198L132.355 64.0998L132.495 68.3998L131.905 68.4198L128.465 65.6798L127.835 65.1498C127.875 65.5498 127.905 65.9198 127.915 66.2698L127.995 68.6998L127.225 68.7298L127.075 64.0698L127.085 64.0798Z" fill="#00539F"/>
<path d="M127.615 73.9599C127.355 73.6099 127.185 73.2799 127.085 72.9699C126.995 72.6599 126.955 72.3299 126.975 71.9799C127.015 71.3999 127.185 70.9699 127.485 70.6799C127.785 70.3899 128.155 70.2599 128.595 70.2899C128.855 70.3099 129.085 70.3799 129.285 70.5099C129.495 70.6399 129.655 70.8099 129.765 71.0099C129.885 71.2099 129.965 71.4299 130.015 71.6699C130.045 71.8499 130.075 72.1099 130.095 72.4699C130.135 73.1999 130.195 73.7299 130.295 74.0799C130.415 74.0899 130.495 74.0999 130.525 74.0999C130.885 74.1199 131.145 74.0599 131.305 73.8999C131.525 73.6899 131.645 73.3499 131.675 72.9099C131.705 72.4899 131.655 72.1799 131.515 71.9699C131.385 71.7599 131.135 71.5899 130.765 71.4699L130.945 70.6099C131.315 70.7099 131.605 70.8699 131.825 71.0599C132.045 71.2599 132.205 71.5299 132.305 71.8799C132.405 72.2299 132.435 72.6299 132.405 73.0899C132.375 73.5399 132.295 73.8999 132.175 74.1699C132.055 74.4399 131.905 74.6399 131.735 74.7599C131.565 74.8799 131.355 74.9599 131.115 74.9999C130.965 75.0199 130.685 75.0199 130.285 74.9899L129.095 74.9099C128.265 74.8499 127.745 74.8399 127.515 74.8599C127.295 74.8799 127.075 74.9399 126.865 75.0399L126.925 74.1099C127.115 74.0299 127.335 73.9899 127.585 73.9799L127.615 73.9599ZM129.605 74.0199C129.495 73.6899 129.415 73.1899 129.365 72.5399C129.335 72.1699 129.295 71.9099 129.245 71.7499C129.185 71.5899 129.105 71.4699 128.975 71.3799C128.855 71.2899 128.715 71.2399 128.555 71.2299C128.315 71.2099 128.115 71.2899 127.945 71.4599C127.775 71.6299 127.675 71.8899 127.655 72.2299C127.635 72.5699 127.685 72.8799 127.815 73.1599C127.945 73.4399 128.135 73.6499 128.395 73.7899C128.585 73.8999 128.885 73.9699 129.275 73.9899L129.605 74.0099V74.0199Z" fill="#00539F"/>
<path d="M127.095 79.0099H126.295C126.285 78.7599 126.295 78.5299 126.315 78.3399C126.365 78.0199 126.455 77.7799 126.585 77.6199C126.715 77.4599 126.865 77.3599 127.045 77.3099C127.225 77.2599 127.575 77.2799 128.105 77.3599L131.105 77.8199L131.205 77.1699L131.895 77.2799L131.795 77.9299L133.085 78.1299L133.475 79.0899L131.655 78.8099L131.515 79.6999L130.825 79.5899L130.965 78.6999L127.925 78.2299C127.675 78.1899 127.505 78.1799 127.435 78.1999C127.355 78.2199 127.295 78.2599 127.245 78.3299C127.195 78.3899 127.155 78.4899 127.135 78.6199C127.125 78.7199 127.115 78.8499 127.105 79.0099H127.095Z" fill="#00539F"/>
<path d="M125.965 80.6499L131.115 81.7499L130.925 82.6199L125.775 81.5199L125.965 80.6499ZM132.075 81.9499L133.075 82.1599L132.885 83.0299L131.885 82.8199L132.075 81.9499Z" fill="#00539F"/>
<path d="M127.905 84.1499C128.835 84.4299 129.455 84.8999 129.745 85.5499C129.985 86.0999 130.015 86.6799 129.835 87.2999C129.625 87.9899 129.235 88.4899 128.645 88.7999C128.055 89.0999 127.365 89.1399 126.565 88.8999C125.915 88.7099 125.435 88.4599 125.115 88.1499C124.805 87.8399 124.595 87.4699 124.505 87.0399C124.415 86.6099 124.425 86.1699 124.565 85.7299C124.775 85.0199 125.175 84.5199 125.755 84.2199C126.335 83.9199 127.055 83.8999 127.905 84.1499ZM127.645 85.0299C126.995 84.8399 126.475 84.8299 126.065 85.0199C125.655 85.2099 125.395 85.5099 125.265 85.9399C125.135 86.3599 125.195 86.7699 125.435 87.1399C125.675 87.5199 126.125 87.8099 126.785 88.0099C127.405 88.1999 127.925 88.1999 128.325 88.0099C128.735 87.8199 128.995 87.5199 129.125 87.0999C129.255 86.6699 129.195 86.2699 128.965 85.8899C128.725 85.5099 128.285 85.2299 127.645 85.0299Z" fill="#00539F"/>
<path d="M123.335 89.8599L128.195 91.8999L127.885 92.6399L127.195 92.3499C127.575 92.9299 127.625 93.5599 127.345 94.2299C127.225 94.5199 127.055 94.7699 126.845 94.9699C126.635 95.1699 126.425 95.2999 126.195 95.3499C125.975 95.3999 125.735 95.3999 125.475 95.3499C125.305 95.3199 125.035 95.2199 124.655 95.0599L121.665 93.7999L122.015 92.9799L124.965 94.2199C125.305 94.3599 125.565 94.4299 125.755 94.4399C125.945 94.4499 126.125 94.3899 126.295 94.2699C126.465 94.1499 126.595 93.9799 126.685 93.7599C126.835 93.4099 126.845 93.0599 126.735 92.7099C126.615 92.3599 126.255 92.0599 125.625 91.7999L122.975 90.6799L123.325 89.8599H123.335Z" fill="#00539F"/>
</g>
<defs>
<clipPath id="clip0_18_728">
<rect width="133.23" height="111.62" fill="white" transform="translate(0.88501 0.879883)"/>
</clipPath>
</defs>
</svg>
