<svg width="120" height="121" viewBox="0 0 120 121" fill="none" xmlns="http://www.w3.org/2000/svg">
<g clip-path="url(#clip0_36_96)">
<path d="M93.1724 27.0266H25.9627C23.3024 27.0266 21.1467 29.1823 21.1467 31.8426V73.2372C21.1467 75.8974 23.3024 78.0531 25.9627 78.0531H45.3871V89.1834H37.8039V94.7333H81.3312V89.1834H73.748V78.0531H93.1724C95.8327 78.0531 97.9884 75.8974 97.9884 73.2372V31.8426C97.9884 29.1823 95.8327 27.0266 93.1724 27.0266Z" stroke="#72A830" stroke-width="3" stroke-miterlimit="10"/>
<path d="M27.3423 28.9377H91.3954C93.7629 28.9377 95.6798 30.9604 95.6798 33.4584V70.0399C95.6798 72.249 93.889 74.0399 91.6798 74.0399H27.0578C24.8487 74.0399 23.0578 72.249 23.0578 70.0399V33.4584C23.0578 30.9604 24.9747 28.9377 27.3423 28.9377Z" fill="white"/>
<path d="M25.5345 28.8765H93.1954C94.5866 28.8765 95.7104 30.0078 95.7104 31.3915V35.1143H23.0195V31.3915C23.0195 30.0002 24.1509 28.8765 25.5345 28.8765Z" fill="#72A830"/>
<path d="M26.6965 33.188C27.3551 33.188 27.889 32.6541 27.889 31.9955C27.889 31.3369 27.3551 30.803 26.6965 30.803C26.0379 30.803 25.504 31.3369 25.504 31.9955C25.504 32.6541 26.0379 33.188 26.6965 33.188Z" fill="white"/>
<path d="M29.9989 33.188C30.6575 33.188 31.1914 32.6541 31.1914 31.9955C31.1914 31.3369 30.6575 30.803 29.9989 30.803C29.3402 30.803 28.8063 31.3369 28.8063 31.9955C28.8063 32.6541 29.3402 33.188 29.9989 33.188Z" fill="white"/>
<path d="M33.2937 33.188C33.9523 33.188 34.4862 32.6541 34.4862 31.9955C34.4862 31.3369 33.9523 30.803 33.2937 30.803C32.635 30.803 32.1011 31.3369 32.1011 31.9955C32.1011 32.6541 32.635 33.188 33.2937 33.188Z" fill="white"/>
<path d="M39.3557 57.8643H27.5145C26.6828 57.8643 26.0085 58.5385 26.0085 59.3702V68.8187C26.0085 69.6504 26.6828 70.3247 27.5145 70.3247H39.3557C40.1874 70.3247 40.8617 69.6504 40.8617 68.8187V59.3702C40.8617 58.5385 40.1874 57.8643 39.3557 57.8643Z" stroke="#72A830" stroke-width="1.12" stroke-miterlimit="10"/>
<path d="M92.8361 38.6614H27.568C26.5674 38.6614 25.7563 39.4725 25.7563 40.4731V52.0238C25.7563 53.0244 26.5674 53.8356 27.568 53.8356H92.8361C93.8367 53.8356 94.6479 53.0244 94.6479 52.0238V40.4731C94.6479 39.4725 93.8367 38.6614 92.8361 38.6614Z" fill="white" stroke="#72A830" stroke-width="1.06" stroke-miterlimit="10"/>
<path d="M25.7562 41.8337C25.7562 41.8337 31.2831 50.105 38.0943 46.7032C44.9055 43.3014 50.8147 39.571 56.8537 43.5308C62.8928 47.4982 66.7456 49.8757 70.9883 48.966C75.2309 48.0563 78.1817 46.2446 83.0665 47.7199C87.9513 49.1953 94.6325 49.6463 94.6325 49.6463" stroke="#72A830" stroke-width="1.07" stroke-miterlimit="10"/>
<path d="M38.7671 60.4634H27.8279V62.7261H38.7671V60.4634Z" fill="#72A830"/>
<path d="M32.1393 63.3452H27.8279V65.608H32.1393V63.3452Z" fill="#72A830"/>
<path d="M36.5502 66.2273H27.8279V68.49H36.5502V66.2273Z" fill="#72A830"/>
<path d="M67.9382 64.6295L67.8847 58.04C67.8847 58.04 67.9153 58.04 67.9382 58.04C71.554 58.04 74.5277 61.0137 74.5277 64.6295C74.5277 66.747 73.5034 68.7422 71.791 69.973L67.9459 64.6295H67.9382Z" fill="#72A830"/>
<path d="M67.9382 71.219C71.5775 71.219 74.5277 68.2688 74.5277 64.6295C74.5277 60.9903 71.5775 58.04 67.9382 58.04C64.2989 58.04 61.3487 60.9903 61.3487 64.6295C61.3487 68.2688 64.2989 71.219 67.9382 71.219Z" stroke="#72A830" stroke-width="1.29" stroke-miterlimit="10"/>
<path d="M50.6618 64.6295L50.6082 58.04C50.6082 58.04 50.6388 58.04 50.6618 58.04C54.2776 58.04 57.2513 61.0137 57.2513 64.6295C57.2513 68.2453 54.2776 71.219 50.6618 71.219C47.0459 71.219 44.0723 68.2453 44.0723 64.6295C44.0723 63.5593 44.3322 62.5044 44.8291 61.5565L50.6541 64.6295H50.6618Z" fill="#72A830"/>
<path d="M50.6618 71.219C54.301 71.219 57.2513 68.2688 57.2513 64.6295C57.2513 60.9903 54.301 58.04 50.6618 58.04C47.0225 58.04 44.0723 60.9903 44.0723 64.6295C44.0723 68.2688 47.0225 71.219 50.6618 71.219Z" stroke="#72A830" stroke-width="1.29" stroke-miterlimit="10"/>
<path d="M86.4988 64.6295L86.4453 58.04C86.4453 58.04 86.4759 58.04 86.4988 58.04C90.1147 58.04 93.0883 61.0137 93.0883 64.6295C93.0883 68.2453 90.1147 71.219 86.4988 71.219C84.3278 71.219 82.2944 70.1488 81.0637 68.3524L86.4988 64.6295Z" fill="#72A830"/>
<path d="M86.4989 71.219C90.1381 71.219 93.0883 68.2688 93.0883 64.6295C93.0883 60.9903 90.1381 58.04 86.4989 58.04C82.8596 58.04 79.9094 60.9903 79.9094 64.6295C79.9094 68.2688 82.8596 71.219 86.4989 71.219Z" stroke="#72A830" stroke-width="1.29" stroke-miterlimit="10"/>
</g>
<circle cx="60" cy="60.8799" r="58.5" stroke="#72A830" stroke-width="3"/>
<defs>
<clipPath id="clip0_36_96">
<rect width="79.1351" height="70" fill="white" transform="translate(20 25.8799)"/>
</clipPath>
</defs>
</svg>
