<svg width="120" height="120" viewBox="0 0 120 120" fill="none" xmlns="http://www.w3.org/2000/svg">
<g clip-path="url(#clip0_36_127)">
<path d="M91.9122 23.3254H28.4135C25.0512 23.3254 22.3256 26.0511 22.3256 29.4134V87.4591C22.3256 90.8214 25.0512 93.5471 28.4135 93.5471H91.9122C95.2745 93.5471 98.0001 90.8214 98.0001 87.4591V29.4134C98.0001 26.0511 95.2745 23.3254 91.9122 23.3254Z" stroke="#72A830" stroke-width="3.34" stroke-miterlimit="10"/>
<path d="M42.9467 60.0437C50.9162 60.0437 57.3768 53.5832 57.3768 45.6137C57.3768 37.6442 50.9162 31.1836 42.9467 31.1836C34.9772 31.1836 28.5166 37.6442 28.5166 45.6137C28.5166 53.5832 34.9772 60.0437 42.9467 60.0437Z" stroke="#72A830" stroke-width="2.9" stroke-miterlimit="10"/>
<path d="M42.9467 49.8523C45.2875 49.8523 47.1852 47.9547 47.1852 45.6138C47.1852 43.2729 45.2875 41.3752 42.9467 41.3752C40.6058 41.3752 38.7081 43.2729 38.7081 45.6138C38.7081 47.9547 40.6058 49.8523 42.9467 49.8523Z" fill="#72A830"/>
<path d="M40.9385 46.7884L33.406 45.7804C33.406 45.7804 31.8979 36.4937 37.1683 38.0018C42.4387 39.5099 42.4387 43.2722 42.4387 43.2722L40.9306 46.7884H40.9385Z" stroke="#72A830" stroke-width="2.18" stroke-miterlimit="10"/>
<path d="M42.1609 42.6928L44.3992 35.4302C44.3992 35.4302 53.805 35.4857 51.4476 40.4307C49.0902 45.3757 45.3755 44.7565 45.3755 44.7565L42.1609 42.6849V42.6928Z" stroke="#72A830" stroke-width="2.18" stroke-miterlimit="10"/>
<path d="M45.185 45.3599L52.6302 46.868C52.6302 46.868 53.5113 56.234 48.352 54.3846C43.1927 52.5273 43.4467 48.7729 43.4467 48.7729L45.185 45.3678V45.3599Z" stroke="#72A830" stroke-width="2.18" stroke-miterlimit="10"/>
<path d="M43.6848 48.3362L42.0577 55.7577C42.0577 55.7577 32.6757 56.4879 34.6124 51.3604C36.5491 46.2329 40.3035 46.5424 40.3035 46.5424L43.6769 48.3362H43.6848Z" stroke="#72A830" stroke-width="2.18" stroke-miterlimit="10"/>
<path d="M76.7281 60.0437C84.6976 60.0437 91.1581 53.5832 91.1581 45.6137C91.1581 37.6442 84.6976 31.1836 76.7281 31.1836C68.7585 31.1836 62.298 37.6442 62.298 45.6137C62.298 53.5832 68.7585 60.0437 76.7281 60.0437Z" stroke="#72A830" stroke-width="2.9" stroke-miterlimit="10"/>
<path d="M76.728 49.8523C79.0689 49.8523 80.9666 47.9547 80.9666 45.6138C80.9666 43.2729 79.0689 41.3752 76.728 41.3752C74.3872 41.3752 72.4895 43.2729 72.4895 45.6138C72.4895 47.9547 74.3872 49.8523 76.728 49.8523Z" fill="#72A830"/>
<path d="M74.7119 46.7884L67.1794 45.7804C67.1794 45.7804 65.6713 36.4937 70.9417 38.0018C76.2121 39.5099 76.2121 43.2722 76.2121 43.2722L74.704 46.7884H74.7119Z" stroke="#72A830" stroke-width="2.18" stroke-miterlimit="10"/>
<path d="M75.9423 42.6928L78.1806 35.4302C78.1806 35.4302 87.5863 35.4857 85.2289 40.4307C82.8716 45.3757 79.1569 44.7565 79.1569 44.7565L75.9423 42.6849V42.6928Z" stroke="#72A830" stroke-width="2.18" stroke-miterlimit="10"/>
<path d="M78.9664 45.3599L86.4116 46.868C86.4116 46.868 87.2927 56.234 82.1334 54.3846C76.9741 52.5273 77.2281 48.7729 77.2281 48.7729L78.9664 45.3678V45.3599Z" stroke="#72A830" stroke-width="2.18" stroke-miterlimit="10"/>
<path d="M77.4662 48.3362L75.839 55.7577C75.839 55.7577 66.4571 56.4879 68.3938 51.3604C70.3305 46.2329 74.0849 46.5424 74.0849 46.5424L77.4582 48.3362H77.4662Z" stroke="#72A830" stroke-width="2.18" stroke-miterlimit="10"/>
<path d="M22.3097 67.3857H59.9327H97.3096" stroke="#72A830" stroke-width="3.34" stroke-miterlimit="10"/>
<path d="M59.5754 92.4597V67.4968" stroke="#72A830" stroke-width="3.34" stroke-miterlimit="10"/>
<path d="M34.0093 94.7378H28.3262V98H34.0093V94.7378Z" fill="#72A830"/>
<path d="M91.6184 94.7378H85.9353V98H91.6184V94.7378Z" fill="#72A830"/>
</g>
<circle cx="60" cy="60" r="58.5" stroke="#72A830" stroke-width="3"/>
<defs>
<clipPath id="clip0_36_127">
<rect width="78.3256" height="76" fill="white" transform="translate(21 22)"/>
</clipPath>
</defs>
</svg>
