<svg width="120" height="121" viewBox="0 0 120 121" fill="none" xmlns="http://www.w3.org/2000/svg">
<circle cx="60" cy="60.6611" r="58.5" stroke="#72A830" stroke-width="3"/>
<g clip-path="url(#clip0_18_614)">
<path d="M86.7534 49.1401C86.7534 34.0814 74.5458 21.8657 59.4791 21.8657C44.4123 21.8657 32.2047 34.0814 32.2047 49.1401C32.2047 58.8018 37.2323 67.2748 44.8059 72.1257C44.0911 72.7522 43.6333 73.6678 43.6333 74.6958C43.6333 76.5912 45.1673 78.1332 47.0707 78.1332H72.538C74.4334 78.1332 75.9754 76.5992 75.9754 74.6958C75.9754 73.5392 75.3972 72.5193 74.5217 71.9009C81.8945 67.0178 86.7615 58.6492 86.7615 49.1481L86.7534 49.1401Z" fill="white" stroke="#72A830" stroke-width="3" stroke-miterlimit="10"/>
<path d="M66.3057 28.3552L49.0303 48.9154L58.5956 52.4813L47.4562 71.9011L73.1564 49.7748L62.017 45.2049L66.3057 28.3552Z" fill="#72A830"/>
<path d="M72.2167 78.1895H46.7494C44.851 78.1895 43.312 79.7266 43.312 81.6228C43.312 83.5191 44.851 85.0562 46.7494 85.0562H72.2167C74.1152 85.0562 75.6541 83.5191 75.6541 81.6228C75.6541 79.7266 74.1152 78.1895 72.2167 78.1895Z" stroke="#72A830" stroke-width="3" stroke-miterlimit="10"/>
<path d="M72.2167 85.2651H46.7494C44.851 85.2651 43.312 86.8023 43.312 88.6985C43.312 90.5947 44.851 92.1319 46.7494 92.1319H72.2167C74.1152 92.1319 75.6541 90.5947 75.6541 88.6985C75.6541 86.8023 74.1152 85.2651 72.2167 85.2651Z" stroke="#72A830" stroke-width="3" stroke-miterlimit="10"/>
<path d="M66.402 92.5334C66.402 96.3564 63.3019 99.4564 59.479 99.4564C55.6561 99.4564 52.556 96.3564 52.556 92.5334" stroke="#72A830" stroke-width="3" stroke-miterlimit="10"/>
</g>
<defs>
<clipPath id="clip0_18_614">
<rect width="56.9581" height="80" fill="white" transform="translate(31 20.6611)"/>
</clipPath>
</defs>
</svg>
