<svg width="120" height="121" viewBox="0 0 120 121" fill="none" xmlns="http://www.w3.org/2000/svg">
<g clip-path="url(#clip0_18_642)">
<path d="M97.573 30.2078H22.427C19.0585 30.2078 16.3278 32.9384 16.3278 36.3069V85.1797C16.3278 88.5482 19.0585 91.2789 22.427 91.2789H97.573C100.941 91.2789 103.672 88.5482 103.672 85.1797V36.3069C103.672 32.9384 100.941 30.2078 97.573 30.2078Z" fill="white" stroke="#72A830" stroke-width="3" stroke-miterlimit="10"/>
<path d="M36.7675 41.5032H30.6152V46.0178H36.7675V41.5032Z" fill="white" stroke="#72A830" stroke-width="1.79" stroke-miterlimit="10"/>
<path d="M41.0785 53.4094H26.5078L30.4116 45.3982H36.9799L41.0785 53.4094Z" fill="white" stroke="#72A830" stroke-width="1.58" stroke-miterlimit="10"/>
<path d="M33.6958 35.9617V41.2995" stroke="#72A830" stroke-width="1.58" stroke-miterlimit="10"/>
<path d="M58.6678 46.8409C59.7433 46.8409 60.6152 44.7919 60.6152 42.2643C60.6152 39.7367 59.7433 37.6877 58.6678 37.6877C57.5922 37.6877 56.7203 39.7367 56.7203 42.2643C56.7203 44.7919 57.5922 46.8409 58.6678 46.8409Z" fill="white" stroke="#72A830" stroke-width="1.77" stroke-miterlimit="10"/>
<path d="M55.77 51.8068C57.9589 50.543 59.2974 48.7634 58.7597 47.8319C58.2219 46.9005 56.0114 47.1699 53.8225 48.4336C51.6336 49.6974 50.295 51.477 50.8328 52.4085C51.3706 53.34 53.581 53.0706 55.77 51.8068Z" fill="white" stroke="#72A830" stroke-width="1.77" stroke-miterlimit="10"/>
<path d="M66.6541 52.412C67.1919 51.4805 65.8534 49.7009 63.6644 48.4371C61.4755 47.1733 59.2651 46.9039 58.7273 47.8354C58.1895 48.7669 59.528 50.5465 61.717 51.8103C63.9059 53.074 66.1164 53.3434 66.6541 52.412Z" fill="white" stroke="#72A830" stroke-width="1.77" stroke-miterlimit="10"/>
<path d="M88.5881 38.6172L83.1617 48.0093H94.0056L88.5881 38.6172Z" fill="#72A830"/>
<path d="M88.5881 64.1116L94.0056 54.7195H83.1617L88.5881 64.1116Z" fill="#72A830"/>
<path d="M88.7474 85.3389C92.2381 85.3389 95.0679 82.5091 95.0679 79.0184C95.0679 75.5278 92.2381 72.698 88.7474 72.698C85.2568 72.698 82.427 75.5278 82.427 79.0184C82.427 82.5091 85.2568 85.3389 88.7474 85.3389Z" fill="#72A830"/>
<path d="M90.6507 76.0176C91.7218 76.6461 92.43 77.8057 92.43 79.1247C92.43 81.1164 90.8189 82.7275 88.8271 82.7275C86.8354 82.7275 85.2243 81.1164 85.2243 79.1247C85.2243 77.8146 85.9236 76.6726 86.9682 76.0353" fill="#72A830"/>
<path d="M90.6507 76.0176C91.7218 76.6461 92.43 77.8057 92.43 79.1247C92.43 81.1164 90.8189 82.7275 88.8271 82.7275C86.8354 82.7275 85.2243 81.1164 85.2243 79.1247C85.2243 77.8146 85.9236 76.6726 86.9682 76.0353" stroke="white" stroke-width="0.9" stroke-miterlimit="10" stroke-linecap="round"/>
<path d="M88.836 74.9819V80.0188" stroke="white" stroke-width="0.9" stroke-miterlimit="10" stroke-linecap="round"/>
<path d="M39.494 66.2803C39.494 72.7601 32.9434 75.0971 32.9168 80.0366V80.373H39.2727V82.5506H30.7834V80.7094C30.7834 73.7693 37.3341 72.4149 37.3341 66.3688C37.3341 64.1558 36.6701 62.9873 35.0679 62.9873C33.4657 62.9873 32.8017 64.2443 32.8017 66.1475V68.0508H30.7834V66.298C30.7834 63.0139 32.1378 60.8274 35.121 60.8274C38.1042 60.8274 39.4851 62.9785 39.4851 66.2626L39.494 66.2803Z" fill="#72A830"/>
<path d="M50.1697 66.2185V66.6168H48.1514V66.068C48.1514 64.1294 47.4344 62.9963 45.8587 62.9963C44.283 62.9963 43.504 64.1648 43.504 66.4663V71.2908C44.0263 69.8125 45.0797 68.9892 46.6289 68.9892C49.1163 68.9892 50.2228 70.9898 50.2228 74.0881V77.3457C50.2228 80.6298 48.7534 82.7809 45.7968 82.7809C42.8401 82.7809 41.3441 80.6298 41.3441 77.3457V66.3778C41.3441 62.9697 42.7251 60.8452 45.7968 60.8452C48.8685 60.8452 50.1609 62.9343 50.1609 66.2185H50.1697ZM43.504 74.2651V77.4873C43.504 79.4259 44.2211 80.5856 45.7968 80.5856C47.3724 80.5856 48.0895 79.4171 48.0895 77.4873V74.2651C48.0895 72.3265 47.3459 71.1668 45.7968 71.1668C44.2476 71.1668 43.504 72.3353 43.504 74.2651Z" fill="#72A830"/>
<path d="M59.5264 63.8372C59.5264 64.7401 58.8182 65.4483 57.9153 65.4483C57.0124 65.4483 56.2865 64.7401 56.2865 63.8372C56.2865 62.9343 57.0124 62.2261 57.9153 62.2261C58.8182 62.2261 59.5264 62.9343 59.5264 63.8372ZM57.1009 63.8372C57.1009 64.2975 57.455 64.6339 57.9153 64.6339C58.3756 64.6339 58.712 64.3063 58.712 63.8372C58.712 63.368 58.3579 63.0405 57.9153 63.0405C57.455 63.0405 57.1009 63.368 57.1009 63.8372Z" fill="#72A830"/>
<path d="M68.1927 70.078V71.4678H66.5639V69.9895C66.5639 68.5997 66.015 67.7676 64.758 67.7676C63.501 67.7676 62.9522 68.6085 62.9522 69.9895V78.1423C62.9522 79.5321 63.5276 80.3642 64.758 80.3642C65.9885 80.3642 66.5639 79.5233 66.5639 78.1423V76.1329H68.1927V78.0538C68.1927 80.3908 67.095 81.931 64.7138 81.931C62.3325 81.931 61.2526 80.3908 61.2526 78.0538V70.0691C61.2526 67.7322 62.3591 66.1919 64.7138 66.1919C67.0684 66.1919 68.1927 67.7322 68.1927 70.0691V70.078Z" fill="#72A830"/>
</g>
<circle cx="60" cy="60.8799" r="58.5" stroke="#72A830" stroke-width="3"/>
<defs>
<clipPath id="clip0_18_642">
<rect width="90" height="63.7268" fill="white" transform="translate(15 28.8799)"/>
</clipPath>
</defs>
</svg>
